<svg xmlns="http://www.w3.org/2000/svg" version="1.1" viewBox="-5.0 -10.0 110.0 135.0">
 <path d="m39.273 72.848c0 0.85547 0.25 3.5469-0.37109 2.9258l-37.059-36.809c-0.082031-0.085938-0.078125-0.21875 0.003906-0.30078l36.969-36.719c0.33594-0.35937 0.46484-0.007812 0.46484 0.070313v22.223l2.9961-0.24219c14.242-1.1562 31.438 0.24219 43.574 8.5664 10.91 7.4844 15.074 19.043 10.574 31.613-5.2617 14.707-20.457 26.422-33.48 33.934-0.55078 0.31641-0.51172-0.15234-0.41016-0.25391 6.418-6.3281 14.152-15.281 16.348-24.262 2.2031-9.0117-2.0039-15.41-10.352-18.754-9.1875-3.6797-19.754-2.8984-29.254-1.5742v19.582l-0.003906-0.003906z" fill-rule="evenodd"/>
<text x="0.0" y="117.5" font-size="5.0" font-weight="bold" font-family="Arbeit Regular, Helvetica, Arial-Unicode, Arial, Sans-serif" fill="#000000">Created by Melisa Lutfiani</text><text x="0.0" y="122.5" font-size="5.0" font-weight="bold" font-family="Arbeit Regular, Helvetica, Arial-Unicode, Arial, Sans-serif" fill="#000000">from Noun Project</text></svg>